<svg width="12" height="12" viewBox="0 0 12 12" fill="none" xmlns="http://www.w3.org/2000/svg">
<path d="M5.22021 4.20069C5.22021 4.50392 5.22021 4.80845 5.22021 5.11168C5.22021 5.78164 5.22021 6.4529 5.22021 7.12287C5.22021 7.79672 5.22021 8.47057 5.22021 9.14442C5.22021 9.37379 5.22021 9.60316 5.22021 9.83253C5.22021 9.89991 5.22021 9.9673 5.22021 10.036C5.22021 10.0606 5.21244 10.0982 5.22021 10.1228C5.21632 10.1111 5.25779 10.0386 5.23187 10.0736C5.23706 10.0658 5.30574 10.0114 5.26427 10.0347C5.27593 10.0282 5.3174 10.0049 5.32906 10.0139C5.32777 10.0139 5.32518 10.0139 5.32388 10.0139C5.29408 10.0088 5.25909 10.0139 5.22928 10.0139C5.08026 10.0139 4.93253 10.0139 4.7835 10.0139C4.49453 10.0139 4.20425 10.0062 3.91527 10.0139C3.91009 10.0139 3.89713 10.0114 3.89324 10.0139C3.90879 10.0049 3.98007 10.0528 3.94249 10.0256C3.96452 10.0412 3.97488 10.0515 3.98914 10.0723C3.96192 10.0334 4.01117 10.106 4.0008 10.1228C4.00339 10.1189 4.0008 10.1085 4.0008 10.1047C4.0021 10.0619 4.0008 10.0191 4.0008 9.97766C4.0008 9.78717 4.0008 9.59668 4.0008 9.40619C4.0008 8.76084 4.0008 8.1168 4.0008 7.47146C4.0008 6.77817 4.0008 6.08358 4.0008 5.39029C4.0008 5.00283 4.0008 4.61666 4.0008 4.22919C4.0008 4.22142 4.00339 4.20976 4.0008 4.20198V4.20069C4.0008 4.18902 3.9995 4.20069 3.99562 4.23567C3.99043 4.24604 3.98525 4.25641 3.98136 4.26548C3.99303 4.24604 3.99173 4.24604 3.98007 4.26418C3.971 4.27066 3.91657 4.31213 3.95804 4.2901C3.94897 4.29528 3.90491 4.31861 3.89324 4.31083C3.89454 4.31213 3.89843 4.31083 3.89972 4.31083C3.99302 4.32379 4.09799 4.31083 4.19129 4.31083C4.52174 4.31083 4.85219 4.31083 5.18393 4.31083C5.2241 4.31083 5.26427 4.31213 5.30574 4.31083C5.31222 4.31083 5.32388 4.31343 5.32906 4.31083C5.31611 4.31602 5.28112 4.29917 5.26557 4.2901C5.30704 4.31343 5.23835 4.259 5.23317 4.25122C5.25779 4.28751 5.22151 4.21494 5.22021 4.20069C5.22799 4.33546 5.33425 4.46634 5.47939 4.45986C5.61286 4.45338 5.74633 4.34582 5.73856 4.20069C5.7256 3.97261 5.56103 3.79897 5.32906 3.79119C5.30185 3.7899 5.27593 3.79119 5.24872 3.79119C5.10358 3.79119 4.95974 3.79119 4.81461 3.79119C4.51396 3.79119 4.21332 3.7886 3.91398 3.79119C3.67683 3.79378 3.49023 3.96225 3.48375 4.20457C3.48245 4.23956 3.48375 4.27325 3.48375 4.30824C3.48375 4.49096 3.48375 4.67368 3.48375 4.85639C3.48375 5.50822 3.48375 6.16004 3.48375 6.81315C3.48375 7.52847 3.48375 8.24379 3.48375 8.96041C3.48375 9.34269 3.47857 9.72497 3.48375 10.1073C3.48634 10.3405 3.6574 10.5258 3.89454 10.5323C3.98266 10.5349 4.07207 10.5323 4.16019 10.5323C4.49841 10.5323 4.83663 10.5323 5.17615 10.5323C5.33684 10.5323 5.49494 10.5375 5.61934 10.4131C5.70875 10.3237 5.73856 10.2044 5.73856 10.0826C5.73856 9.93361 5.73856 9.78458 5.73856 9.63556C5.73856 9.01743 5.73856 8.398 5.73856 7.77987C5.73856 7.05419 5.73856 6.3285 5.73856 5.60411C5.73856 5.15833 5.73856 4.71126 5.73856 4.26548C5.73856 4.24474 5.73856 4.22272 5.73856 4.20198C5.73856 4.06592 5.61934 3.93633 5.47939 3.94281C5.33943 3.94799 5.22021 4.05555 5.22021 4.20069Z" fill="#BCBCBF"/>
<path d="M8.35098 1.41065C8.35098 1.5182 8.35098 1.62446 8.35098 1.73202C8.35098 2.01841 8.35098 2.3035 8.35098 2.58989C8.35098 2.99938 8.35098 3.40758 8.35098 3.81707C8.35098 4.29914 8.35098 4.7812 8.35098 5.26326C8.35098 5.76347 8.35098 6.26367 8.35098 6.76388C8.35098 7.2278 8.35098 7.69301 8.35098 8.15694C8.35098 8.53144 8.35098 8.90724 8.35098 9.28175C8.35098 9.51371 8.35098 9.74437 8.35098 9.97633C8.35098 10.0217 8.34579 10.0709 8.35098 10.115C8.35098 10.1176 8.34968 10.1215 8.35098 10.1241C8.3445 10.1111 8.36653 10.0683 8.37171 10.0593C8.36394 10.0735 8.35357 10.0748 8.37301 10.0606C8.37689 10.058 8.43002 10.0139 8.40281 10.0308C8.37949 10.045 8.42614 10.0204 8.42614 10.0204C8.42743 10.0204 8.46113 10.0152 8.45983 10.0152C8.43391 10.001 8.36264 10.0152 8.33413 10.0152C7.91686 10.0152 7.4983 10.0152 7.08103 10.0152C7.06418 10.0152 7.04474 10.0126 7.02919 10.0152C7.00716 10.0191 7.06936 10.0269 7.07455 10.0282C7.10306 10.0346 7.08621 10.0359 7.07584 10.0269C7.09787 10.0424 7.10824 10.0528 7.12249 10.0735C7.11472 10.0619 7.11602 10.0463 7.1212 10.0748C7.12509 10.0917 7.14582 10.1033 7.13416 10.1241C7.13675 10.1202 7.13416 10.1059 7.13416 10.102C7.13545 10.0476 7.13416 9.99188 7.13416 9.93746C7.13416 9.68995 7.13416 9.44373 7.13416 9.19622C7.13416 8.81135 7.13416 8.42518 7.13416 8.04031C7.13416 7.56991 7.13416 7.1008 7.13416 6.6304C7.13416 6.1302 7.13416 5.6287 7.13416 5.12849C7.13416 4.65291 7.13416 4.17603 7.13416 3.70044C7.13416 3.29873 7.13416 2.89701 7.13416 2.49529C7.13416 2.22316 7.13416 1.95102 7.13416 1.67889C7.13416 1.60891 7.13416 1.53764 7.13416 1.46766C7.13416 1.45211 7.13675 1.43527 7.13416 1.41972C7.13416 1.41713 7.13545 1.41324 7.13416 1.41065L7.12897 1.44563C7.12897 1.44563 7.10306 1.49229 7.11861 1.46896C7.13545 1.44175 7.09269 1.49488 7.0888 1.49877C7.07455 1.5182 7.07584 1.50913 7.0901 1.50006C7.08103 1.50524 7.03956 1.52598 7.0253 1.5208C7.03438 1.52468 7.05641 1.5208 7.06677 1.5208C7.09787 1.5208 7.12897 1.5208 7.15878 1.5208C7.25726 1.5208 7.35575 1.5208 7.45424 1.5208C7.69268 1.5208 7.93112 1.5208 8.16826 1.5208C8.24601 1.5208 8.32376 1.5208 8.40152 1.5208C8.41836 1.5208 8.4378 1.52339 8.45465 1.5208C8.46372 1.5195 8.4689 1.52727 8.44428 1.5182C8.42743 1.51172 8.41318 1.51043 8.39633 1.50006C8.43391 1.52209 8.38856 1.49229 8.38337 1.4884C8.37949 1.48451 8.34968 1.43786 8.37171 1.47544C8.35875 1.45341 8.35227 1.43656 8.35098 1.41065C8.35875 1.54542 8.46501 1.6763 8.61015 1.66982C8.74362 1.66334 8.8771 1.55578 8.86932 1.41065C8.85637 1.1748 8.68272 1.00504 8.44557 1.00115C8.38337 0.999856 8.31988 1.00115 8.25767 1.00115C8.02053 1.00115 7.78209 1.00115 7.54495 1.00115C7.37519 1.00115 7.20543 0.99856 7.03697 1.00115C6.79075 1.00504 6.61711 1.19164 6.61581 1.43397C6.61451 1.59725 6.61581 1.76053 6.61581 1.92511C6.61581 2.25944 6.61581 2.59377 6.61581 2.9294C6.61581 3.37518 6.61581 3.82226 6.61581 4.26803C6.61581 4.77213 6.61581 5.27752 6.61581 5.78161C6.61581 6.28311 6.61581 6.78591 6.61581 7.28741C6.61581 7.73448 6.61581 8.18156 6.61581 8.62734C6.61581 8.95908 6.61581 9.28952 6.61581 9.62127C6.61581 9.78195 6.61451 9.94394 6.61581 10.1046C6.61711 10.3482 6.79594 10.531 7.04085 10.5336C7.21709 10.5361 7.39333 10.5336 7.56957 10.5336C7.80542 10.5336 8.03997 10.5336 8.27582 10.5336C8.33413 10.5336 8.39244 10.5349 8.45076 10.5336C8.68142 10.5297 8.86284 10.3573 8.86932 10.1241C8.87321 10.01 8.86932 9.89469 8.86932 9.78066C8.86932 9.4839 8.86932 9.18585 8.86932 8.8891C8.86932 8.46276 8.86932 8.03771 8.86932 7.61137C8.86932 7.11765 8.86932 6.62392 8.86932 6.1289C8.86932 5.61963 8.86932 5.11035 8.86932 4.60107C8.86932 4.13715 8.86932 3.67323 8.86932 3.20931C8.86932 2.84388 8.86932 2.47844 8.86932 2.11301C8.86932 1.90567 8.86932 1.69833 8.86932 1.49229C8.86932 1.46507 8.86932 1.43786 8.86932 1.41065C8.86932 1.27458 8.7501 1.14499 8.61015 1.15147C8.4689 1.15795 8.35098 1.26551 8.35098 1.41065Z" fill="#BCBCBF"/>
<path d="M11.4804 2.75577C11.4804 2.85037 11.4804 2.94627 11.4804 3.04086C11.4804 3.29485 11.4804 3.55014 11.4804 3.80413C11.4804 4.16568 11.4804 4.52852 11.4804 4.89007C11.4804 5.31122 11.4804 5.73368 11.4804 6.15483C11.4804 6.58765 11.4804 7.01918 11.4804 7.452C11.4804 7.84724 11.4804 8.24377 11.4804 8.63901C11.4804 8.94484 11.4804 9.25196 11.4804 9.55778C11.4804 9.72754 11.4804 9.8973 11.4804 10.0671C11.4804 10.0826 11.4791 10.0982 11.4804 10.1137C11.4804 10.1163 11.4791 10.1202 11.4804 10.1228V10.1241C11.4739 10.1137 11.4907 10.0839 11.4933 10.0748C11.5024 10.045 11.4998 10.0645 11.492 10.0735C11.5024 10.0593 11.5141 10.0489 11.5257 10.0373C11.5413 10.0256 11.5439 10.0243 11.5322 10.0308C11.5154 10.0398 11.5231 10.036 11.5555 10.0204C11.584 10.0113 11.6022 10.0165 11.5711 10.0152C11.5504 10.0139 11.5309 10.0152 11.5102 10.0152C11.4363 10.0152 11.3612 10.0152 11.2873 10.0152C10.9232 10.0152 10.5577 10.0152 10.1936 10.0152C10.1832 10.0152 10.1677 10.0126 10.1573 10.0152C10.1638 10.0126 10.2052 10.0269 10.2195 10.036C10.2078 10.0295 10.2001 10.0165 10.2182 10.0373C10.2299 10.0502 10.2415 10.0593 10.2519 10.0735C10.2441 10.0619 10.2454 10.0463 10.2506 10.0748C10.2545 10.0917 10.2752 10.1046 10.2636 10.1241C10.2662 10.1202 10.2636 10.1085 10.2636 10.1033C10.2649 10.0541 10.2636 10.0049 10.2636 9.95691C10.2636 9.73661 10.2636 9.51632 10.2636 9.29602C10.2636 8.9552 10.2636 8.61569 10.2636 8.27487C10.2636 7.86279 10.2636 7.452 10.2636 7.03991C10.2636 6.6058 10.2636 6.17168 10.2636 5.73757C10.2636 5.32807 10.2636 4.91858 10.2636 4.50908C10.2636 4.17734 10.2636 3.8456 10.2636 3.51386C10.2636 3.30652 10.2636 3.09918 10.2636 2.89184C10.2636 2.85167 10.2687 2.80631 10.2636 2.76614C10.2636 2.76355 10.2649 2.75966 10.2636 2.75707C10.2623 2.75318 10.2584 2.79076 10.2584 2.79076C10.2584 2.79076 10.2325 2.83741 10.248 2.81409C10.2636 2.78947 10.2312 2.83482 10.2325 2.83353C10.2325 2.83353 10.1884 2.86463 10.213 2.84908C10.2299 2.83871 10.1793 2.85944 10.1728 2.86203C10.1456 2.87111 10.1599 2.86463 10.1767 2.86463C10.1988 2.86592 10.2208 2.86463 10.2428 2.86463C10.6199 2.86463 10.9983 2.86463 11.3754 2.86463C11.4337 2.86463 11.492 2.86463 11.5517 2.86463C11.562 2.86463 11.5802 2.86851 11.5905 2.86463C11.5957 2.86333 11.5504 2.85426 11.5439 2.85167C11.5141 2.8426 11.5335 2.84519 11.5426 2.85296C11.5283 2.8426 11.518 2.83093 11.5063 2.81927C11.4856 2.80113 11.4972 2.80761 11.505 2.82057C11.4882 2.79983 11.4817 2.78169 11.4804 2.75577C11.4882 2.89054 11.5944 3.02143 11.7396 3.01495C11.873 3.00847 12.0065 2.90091 11.9987 2.75577C11.9858 2.52511 11.8173 2.35405 11.584 2.34628C11.54 2.34498 11.4959 2.34628 11.4519 2.34628C11.2588 2.34628 11.0644 2.34628 10.8713 2.34628C10.6782 2.34628 10.4839 2.34628 10.2908 2.34628C10.2467 2.34628 10.2027 2.34498 10.1586 2.34628C9.92793 2.35276 9.75299 2.52381 9.74392 2.75577C9.74003 2.85556 9.74392 2.95534 9.74392 3.05512C9.74392 3.31948 9.74392 3.58254 9.74392 3.84689C9.74392 4.2227 9.74392 4.5985 9.74392 4.9743C9.74392 5.40841 9.74392 5.84383 9.74392 6.27794C9.74392 6.71854 9.74392 7.16043 9.74392 7.60102C9.74392 7.99626 9.74392 8.39021 9.74392 8.78545C9.74392 9.0809 9.74392 9.37766 9.74392 9.67312C9.74392 9.81696 9.74262 9.96209 9.74392 10.1059C9.74651 10.3444 9.91886 10.5271 10.1599 10.5336C10.2921 10.5375 10.4255 10.5336 10.559 10.5336C10.9011 10.5336 11.2445 10.5452 11.5866 10.5336C11.8277 10.5258 11.9974 10.3405 12 10.1033C12 10.0515 12 9.99967 12 9.94914C12 9.71977 12 9.4904 12 9.26103C12 8.90726 12 8.55349 12 8.20101C12 7.77597 12 7.35092 12 6.92458C12 6.4801 12 6.03561 12 5.59113C12 5.18034 12 4.76955 12 4.35876C12 4.03479 12 3.70953 12 3.38557C12 3.20026 12 3.01365 12 2.82834C12 2.80372 12 2.7791 12 2.75577C12 2.61971 11.8808 2.49012 11.7408 2.4966C11.5996 2.50308 11.4804 2.61064 11.4804 2.75577Z" fill="#BCBCBF"/>
<path d="M2.0905 5.69718C2.0905 5.95376 2.0905 6.20905 2.0905 6.46563C2.0905 7.01378 2.0905 7.56193 2.0905 8.11138C2.0905 8.62195 2.0905 9.13253 2.0905 9.64439C2.0905 9.78305 2.0905 9.92041 2.0905 10.0591C2.0905 10.0733 2.08272 10.1122 2.0905 10.1239C2.0905 10.1355 2.0918 10.1239 2.09568 10.0889C2.09828 10.0811 2.12678 10.0383 2.10216 10.0733C2.11642 10.0526 2.12678 10.0422 2.14881 10.0267C2.10994 10.0539 2.1851 10.0033 2.19935 10.015C2.19806 10.015 2.19547 10.015 2.19417 10.015C2.17214 10.0111 2.14752 10.015 2.12549 10.015C1.88057 10.015 1.63565 10.015 1.39073 10.015C1.25855 10.015 1.12637 10.015 0.994196 10.015C0.921627 10.015 0.845171 10.0072 0.772602 10.015C0.771307 10.015 0.763531 10.0137 0.762235 10.015C0.772602 10.0059 0.824437 10.0332 0.827029 10.0357C0.807591 10.0254 0.804999 10.0137 0.839988 10.0474C0.843875 10.0513 0.87368 10.0979 0.85165 10.0604C0.859426 10.0733 0.880159 10.1122 0.872384 10.1252C0.87368 10.1226 0.872384 10.1135 0.872384 10.1096C0.874976 10.0733 0.872384 10.0357 0.872384 9.99946C0.872384 9.83877 0.872384 9.67679 0.872384 9.5161C0.872384 8.98739 0.872384 8.45997 0.872384 7.93126C0.872384 7.39736 0.872384 6.86476 0.872384 6.33086C0.872384 6.16628 0.872384 6.00041 0.872384 5.83584C0.872384 5.79696 0.87368 5.75809 0.872384 5.71921C0.872384 5.71403 0.874976 5.70366 0.872384 5.69977C0.872384 5.69848 0.867201 5.73346 0.867201 5.73346C0.850355 5.78659 0.849059 5.76456 0.860722 5.74901C0.845171 5.77104 0.834804 5.78141 0.81407 5.79567C0.849059 5.77104 0.806295 5.79955 0.79852 5.80215C-0.975523 6.36196 0.759644 5.80474 0.763531 5.80733C0.764827 5.80862 0.767419 5.80733 0.768715 5.80733C0.832212 5.81769 0.907373 5.80733 0.97087 5.80733C1.10046 5.80733 1.23004 5.80733 1.35963 5.80733C1.61103 5.80733 1.86243 5.80733 2.11253 5.80733C2.13715 5.80733 2.16307 5.80992 2.18769 5.80733C2.19028 5.80733 2.19676 5.80862 2.19935 5.80733C2.17862 5.81899 2.16566 5.79826 2.15011 5.79437C2.14493 5.79178 2.13974 5.78919 2.13456 5.78659C2.154 5.79826 2.154 5.79696 2.13586 5.7853C2.13197 5.78141 2.0892 5.72828 2.10605 5.75549C2.11901 5.77493 2.0905 5.70495 2.0905 5.69718C2.09828 5.83195 2.20454 5.96283 2.34967 5.95635C2.48315 5.94987 2.61662 5.84232 2.60885 5.69718C2.59459 5.45096 2.41058 5.28769 2.16696 5.28769C2.07236 5.28769 1.97906 5.28769 1.88446 5.28769C1.59937 5.28769 1.31428 5.28769 1.02918 5.28769C0.946249 5.28769 0.863313 5.28639 0.780378 5.28769C0.54453 5.29028 0.363108 5.46004 0.354037 5.69718C0.351445 5.78012 0.354037 5.86305 0.354037 5.94599C0.354037 6.42287 0.354037 6.89975 0.354037 7.37662C0.354037 7.95976 0.354037 8.54291 0.354037 9.12734C0.354037 9.4539 0.35015 9.78175 0.354037 10.1083C0.356629 10.3027 0.479736 10.4802 0.676708 10.5217C0.753164 10.5372 0.832212 10.5321 0.908669 10.5321C1.18339 10.5321 1.45941 10.5321 1.73414 10.5321C1.85336 10.5321 1.97258 10.5321 2.0918 10.5321C2.20454 10.5321 2.30691 10.5334 2.41058 10.4737C2.60626 10.361 2.60885 10.1627 2.60885 9.97225C2.60885 9.53295 2.60885 9.09365 2.60885 8.65435C2.60885 8.06603 2.60885 7.479 2.60885 6.89067C2.60885 6.51098 2.60885 6.1313 2.60885 5.7529C2.60885 5.73476 2.60885 5.71532 2.60885 5.69718C2.60885 5.56111 2.48963 5.43153 2.34967 5.43801C2.20972 5.44449 2.0905 5.55204 2.0905 5.69718Z" fill="#BCBCBF"/>
</svg>
